<svg xmlns="http://www.w3.org/2000/svg"  viewBox="0 0 64 64" width="256px" height="256px"><linearGradient id="up2WO_xoIkw2efDPUl19Ha" x1="23.973" x2="23.973" y1="15.809" y2="51.692" gradientUnits="userSpaceOnUse"><stop offset="0" stop-color="#6dc7ff"/><stop offset="1" stop-color="#e6abff"/></linearGradient><path fill="url(#up2WO_xoIkw2efDPUl19Ha)" d="M38.266,19.205c-12.541,6.271-17.514,37.624-17.514,37.624L11,56l-1.321-2.48 c1.63-5.11,6.156-18.157,13.129-29.498C24.688,20.966,29.297,14,33.103,14C34.8,14,38.266,19.205,38.266,19.205z"/><linearGradient id="up2WO_xoIkw2efDPUl19Hb" x1="32" x2="32" y1="7.766" y2="55.688" gradientUnits="userSpaceOnUse"><stop offset="0" stop-color="#1a6dff"/><stop offset="1" stop-color="#c822ff"/></linearGradient><path fill="url(#up2WO_xoIkw2efDPUl19Hb)" d="M50,7H14c-3.859,0-7,3.141-7,7v36c0,3.859,3.141,7,7,7h36c3.859,0,7-3.141,7-7V14	C57,10.141,53.859,7,50,7z M9,14c0-2.757,2.243-5,5-5h13.913c-2.459,2.22-4.813,5.392-6.546,8.003	C15.934,25.188,11.71,34.293,9,40.846V14z M14,55c-1.283,0-2.443-0.5-3.329-1.297c1.643-5.133,6.122-17.989,12.989-29.156	C27.392,18.479,30.834,15,33.103,15c1.169,0,2.389,1.458,3.593,3.949C26.172,25.589,21.253,48.534,20.056,55H14z M22.099,55	c1.277-6.628,6.045-27.994,15.413-34.197c2.332,5.764,4.531,15.171,6.078,25.197H38v2h5.891c0.096,0.665,0.191,1.332,0.281,2H41v2	h3.429c0.125,1.001,0.245,2.002,0.355,3H22.099z M55,50c0,2.757-2.243,5-5,5h-3.205c-0.621-5.385-5.164-42-13.692-42	c-3.11,0-6.861,3.532-11.146,10.499C15.583,33.864,11.247,45.62,9.271,51.552C9.109,51.06,9,50.545,9,50v-3.734	c2.334-6.154,7.233-17.911,14.033-28.157c3.012-4.537,5.896-7.733,8.187-9.108H50c2.757,0,5,2.243,5,5V50z"/></svg>