<svg width="853" height="237" viewBox="0 0 853 237" fill="none" xmlns="http://www.w3.org/2000/svg">
<g filter="url(#filter0_d_2_163)">
<rect x="4.5" y="2.5" width="794" height="226" stroke="black" shape-rendering="crispEdges"/>
</g>
<line y1="-0.5" x2="295.471" y2="-0.5" transform="matrix(0.640133 0.768264 -0.7982 0.602392 10 2.00001)" stroke="black"/>
<line y1="-0.5" x2="295.471" y2="-0.5" transform="matrix(0.640133 -0.768264 0.798201 0.602392 10 229)" stroke="black"/>
<line x1="199.641" y1="2.00001" x2="199.641" y2="229" stroke="black"/>
<line y1="-0.5" x2="309.749" y2="-0.5" transform="matrix(0.680389 0.732851 -0.827962 0.560784 199.141 4.00001)" stroke="black"/>
<line y1="-0.5" x2="309.749" y2="-0.5" transform="matrix(0.680389 -0.732851 0.827962 0.560784 199.141 231)" stroke="black"/>
<line x1="410.391" y1="4.00001" x2="410.391" y2="231" stroke="black"/>
<line y1="-0.5" x2="309.749" y2="-0.5" transform="matrix(0.680389 0.732851 -0.827962 0.560784 409.637 2.00001)" stroke="black"/>
<line y1="-0.5" x2="309.749" y2="-0.5" transform="matrix(0.680389 -0.732851 0.827962 0.560784 409.637 229)" stroke="black"/>
<line x1="620.887" y1="2.00001" x2="620.887" y2="229" stroke="black"/>
<line x1="621.541" y1="1.68934" x2="801.542" y2="228.681" stroke="black"/>
<line y1="-0.5" x2="289.698" y2="-0.5" transform="matrix(0.621299 -0.783574 0.783514 0.621374 621.15 229)" stroke="black"/>
<line x1="801.639" y1="2.00001" x2="801.639" y2="229" stroke="black"/>
<path d="M86.1313 231.184H6.20943V5.72921H86.7918C109.469 5.72921 128.991 10.2427 145.357 19.2697C161.723 28.2233 174.31 41.1033 183.116 57.9096C191.997 74.716 196.437 94.8249 196.437 118.236C196.437 141.721 191.997 161.903 183.116 178.783C174.31 195.663 161.65 208.616 145.137 217.643C128.698 226.67 109.029 231.184 86.1313 231.184ZM53.8763 190.342H84.1498C98.2407 190.342 110.093 187.847 119.707 182.856C129.395 177.792 136.66 169.976 141.504 159.408C146.421 148.767 148.88 135.043 148.88 118.236C148.88 101.577 146.421 87.9629 141.504 77.3947C136.66 66.8265 129.431 59.0472 119.817 54.0566C110.203 49.0661 98.3508 46.5708 84.2599 46.5708H53.8763V190.342Z" fill="#6D0000"/>
<path d="M401.39 84.4766H353.173C352.292 78.2384 350.494 72.6974 347.779 67.8537C345.063 62.9365 341.577 58.7533 337.321 55.304C333.064 51.8546 328.147 49.2126 322.569 47.3778C317.065 45.5431 311.084 44.6257 304.625 44.6257C292.956 44.6257 282.792 47.5246 274.132 53.3224C265.472 59.0469 258.756 67.4133 253.986 78.4219C249.216 89.357 246.83 102.641 246.83 118.273C246.83 134.345 249.216 147.849 253.986 158.784C258.83 169.719 265.582 177.976 274.242 183.553C282.902 189.131 292.919 191.92 304.295 191.92C310.68 191.92 316.588 191.076 322.019 189.388C327.523 187.7 332.403 185.241 336.66 182.012C340.917 178.71 344.439 174.71 347.228 170.013C350.09 165.316 352.072 159.958 353.173 153.94L401.39 154.161C400.142 164.509 397.023 174.49 392.033 184.104C387.116 193.644 380.474 202.194 372.107 209.754C363.814 217.239 353.907 223.184 342.384 227.587C330.936 231.917 317.982 234.082 303.524 234.082C283.415 234.082 265.435 229.532 249.583 220.432C233.804 211.331 221.327 198.158 212.154 180.911C203.053 163.665 198.503 142.785 198.503 118.273C198.503 93.687 203.127 72.7708 212.374 55.5242C221.621 38.2775 234.171 25.1406 250.023 16.1136C265.875 7.01325 283.709 2.46306 303.524 2.46306C316.588 2.46306 328.697 4.29781 339.852 7.96732C351.081 11.6368 361.026 16.9943 369.686 24.0398C378.346 31.0118 385.391 39.5618 390.822 49.6896C396.326 59.8175 399.849 71.4131 401.39 84.4766Z" fill="#6D0000"/>
<path d="M611.886 82.4766H563.669C562.788 76.2384 560.99 70.6974 558.274 65.8537C555.559 60.9365 552.073 56.7533 547.816 53.304C543.56 49.8546 538.643 47.2126 533.065 45.3778C527.561 43.5431 521.579 42.6257 515.121 42.6257C503.452 42.6257 493.287 45.5246 484.627 51.3224C475.967 57.0469 469.252 65.4133 464.482 76.4219C459.711 87.357 457.326 100.641 457.326 116.273C457.326 132.345 459.711 145.849 464.482 156.784C469.326 167.719 476.077 175.976 484.737 181.553C493.397 187.131 503.415 189.92 514.791 189.92C521.176 189.92 527.084 189.076 532.514 187.388C538.019 185.7 542.899 183.241 547.156 180.012C551.412 176.71 554.935 172.71 557.724 168.013C560.586 163.316 562.568 157.958 563.669 151.94L611.886 152.161C610.638 162.509 607.519 172.49 602.529 182.104C597.611 191.644 590.97 200.194 582.603 207.754C574.31 215.239 564.402 221.184 552.88 225.587C541.431 229.917 528.478 232.082 514.02 232.082C493.911 232.082 475.931 227.532 460.078 218.432C444.299 209.331 431.823 196.158 422.649 178.911C413.549 161.665 408.999 140.785 408.999 116.273C408.999 91.687 413.622 70.7708 422.87 53.5242C432.117 36.2775 444.666 23.1406 460.519 14.1136C476.371 5.01325 494.205 0.46306 514.02 0.46306C527.084 0.46306 539.193 2.29781 550.348 5.96732C561.577 9.63683 571.521 14.9943 580.181 22.0398C588.841 29.0118 595.887 37.5618 601.318 47.6896C606.822 57.8175 610.345 69.4131 611.886 82.4766Z" fill="#6D0000"/>
<path d="M624.475 229V3.54545H714.744C731.331 3.54545 745.165 6.00402 756.247 10.9212C767.328 15.8383 775.658 22.6636 781.236 31.397C786.814 40.0571 789.602 50.0381 789.602 61.3402C789.602 70.147 787.841 77.8897 784.318 84.5682C780.796 91.1733 775.952 96.6042 769.787 100.861C763.696 105.044 756.724 108.016 748.871 109.778V111.979C757.457 112.346 765.494 114.768 772.979 119.245C780.539 123.722 786.667 129.997 791.364 138.07C796.061 146.069 798.409 155.61 798.409 166.692C798.409 178.654 795.437 189.333 789.492 198.727C783.621 208.047 774.924 215.423 763.402 220.854C751.88 226.285 737.679 229 720.799 229H624.475ZM672.141 190.03H711.001C724.285 190.03 733.973 187.498 740.064 182.434C746.155 177.297 749.201 170.471 749.201 161.958C749.201 155.72 747.697 150.216 744.688 145.445C741.679 140.675 737.385 136.932 731.808 134.217C726.303 131.501 719.735 130.143 712.102 130.143H672.141V190.03ZM672.141 97.8885H707.479C714.01 97.8885 719.808 96.7509 724.872 94.4758C730.01 92.1274 734.046 88.8248 736.982 84.5682C739.991 80.3116 741.495 75.2109 741.495 69.2663C741.495 61.12 738.596 54.5516 732.798 49.5611C727.074 44.5705 718.928 42.0753 708.359 42.0753H672.141V97.8885Z" fill="#6D0000"/>
<defs>
<filter id="filter0_d_2_163" x="0" y="2" width="803" height="235" filterUnits="userSpaceOnUse" color-interpolation-filters="sRGB">
<feFlood flood-opacity="0" result="BackgroundImageFix"/>
<feColorMatrix in="SourceAlpha" type="matrix" values="0 0 0 0 0 0 0 0 0 0 0 0 0 0 0 0 0 0 127 0" result="hardAlpha"/>
<feOffset dy="4"/>
<feGaussianBlur stdDeviation="2"/>
<feComposite in2="hardAlpha" operator="out"/>
<feColorMatrix type="matrix" values="0 0 0 0 0 0 0 0 0 0 0 0 0 0 0 0 0 0 0.25 0"/>
<feBlend mode="normal" in2="BackgroundImageFix" result="effect1_dropShadow_2_163"/>
<feBlend mode="normal" in="SourceGraphic" in2="effect1_dropShadow_2_163" result="shape"/>
</filter>
</defs>
</svg>
